<svg width="521" height="512" viewBox="0 0 521 512" fill="none" xmlns="http://www.w3.org/2000/svg">
<circle cx="260" cy="256" r="256" fill="black"/>
<path d="M422.109 317.448C411.964 323.181 400.543 326.048 387.845 326.048C375.147 326.048 363.631 323.181 353.296 317.448C342.957 311.509 334.732 303.318 328.62 292.875C322.712 282.432 319.648 270.555 319.427 257.245C319.207 243.934 321.877 232.058 327.438 221.614C333.204 211.171 341.16 203.082 351.304 197.349C361.446 191.41 372.866 188.441 385.563 188.441C398.261 188.441 409.779 191.41 420.117 197.349C430.452 203.082 438.574 211.171 444.481 221.614C450.594 232.058 453.76 243.934 453.981 257.245C454.202 270.555 451.429 282.432 445.663 292.875C440.102 303.318 432.25 311.509 422.109 317.448Z" fill="white"/>
<path fill-rule="evenodd" clip-rule="evenodd" d="M264.489 511.93C405.874 511.93 518.589 397.33 516.244 255.965C513.9 114.599 397.385 0 256 0C198.519 0 145.776 18.9423 103.578 50.9244L156.447 136.48L212.31 40.9544H261.154L179.898 179.79L181.161 255.965H131.395L130.122 179.175L69.8153 81.7324C28.093 127.423 3.1284 188.661 4.24445 255.965C5.20655 313.985 25.4009 367.497 58.6534 410.427L56.7712 296.919H97.936L207.006 427.461L204.842 296.919H253.994L257.557 511.838C259.861 511.899 262.172 511.93 264.489 511.93ZM327.79 353.999C345.972 363.624 366.225 368.436 388.548 368.436C410.871 368.436 430.862 363.624 448.52 353.999C466.178 344.375 479.987 331.167 489.949 314.376C499.907 297.38 504.711 278.336 504.362 257.245C504.012 236.153 498.578 217.212 488.059 200.42C477.538 183.424 463.288 170.114 445.311 160.49C427.334 150.866 407.183 146.054 384.86 146.054C362.537 146.054 342.444 150.866 324.581 160.49C306.923 170.114 293.115 183.424 283.157 200.42C273.4 217.212 268.697 236.153 269.046 257.245C269.396 278.336 274.73 297.38 285.047 314.376C295.565 331.167 309.813 344.375 327.79 353.999Z" fill="white"/>
<path d="M212.248 506.614C174.061 498.739 138.825 482.417 108.622 459.696L107.324 381.388L212.248 506.614Z" fill="white"/>
</svg>
